<?xml version="1.0" encoding="UTF-8" standalone="no"?><!-- Generator: Gravit.io --><svg xmlns="http://www.w3.org/2000/svg" xmlns:xlink="http://www.w3.org/1999/xlink" style="isolation:isolate" viewBox="0 0 2343.469 443.203" width="2343.469pt" height="443.203pt"><defs><clipPath id="_clipPath_5YxcM9F6aIPwvbhWmBDCC1aG6qxY2pgr"><rect width="2343.469" height="443.203"/></clipPath></defs><g clip-path="url(#_clipPath_5YxcM9F6aIPwvbhWmBDCC1aG6qxY2pgr)"><path d=" M 747.838 0.123 C 764.584 -0.629 787.607 1.734 798.348 16.8 C 800.231 19.441 801.262 22.586 801.758 25.765 C 804.455 43.054 793.452 61.955 775.685 65.345 C 772.443 65.964 769.132 66.168 765.838 66.123 L 765.838 66.123 L 757.838 57.123 C 751.945 50.791 743.213 48.513 734.838 48.123 L 734.838 48.123 L 726.338 52.623 L 725.838 54.123 L 724.338 54.623 Q 709.305 76.59 712.338 116.623 Q 714.178 136.282 722.838 149.123 L 752.838 149.123 Q 762.588 146.373 765.338 150.623 Q 765.239 178.024 749.838 190.123 Q 747.637 194.923 739.838 194.123 L 726.838 189.123 C 724.126 190.479 724.746 194.255 725.338 196.623 L 725.338 196.623 L 725.338 215.623 L 725.338 291.623 Q 727.107 360.892 686.838 388.123 Q 655.519 420.305 584.838 413.123 Q 560.187 409.273 529.838 411.123 Q 520.918 413.203 515.338 418.623 Q 509.883 422.668 511.338 433.623 L 512.338 437.623 Q 504.588 443.873 489.838 443.123 Q 475.382 439.579 468.338 428.623 Q 457.338 415.123 460.338 387.623 Q 465.079 369.364 477.838 359.123 Q 496.838 342.123 535.838 345.123 Q 565.629 351.832 587.838 366.123 Q 596.645 375.815 616.838 374.123 L 627.338 367.623 C 640.218 354.742 634.228 334.641 631.185 319.275 C 626.783 297.052 626.106 274.193 627.338 251.623 L 627.338 251.623 L 627.338 211.623 Q 630.588 198.373 623.838 195.123 Q 611.838 197.623 609.338 190.623 Q 599.453 176.507 600.338 151.623 Q 601.588 148.873 602.838 151.123 L 626.838 156.123 L 627.338 101.623 Q 631.591 53.876 662.838 33.123 Q 695.06 6.346 747.838 0.123 L 747.838 0.123 Z  M 521.838 58.123 Q 567.434 55.526 593.338 72.623 Q 593.796 80.081 587.838 81.123 L 569.838 101.123 Q 552.112 108.397 524.838 106.123 Q 523.088 103.373 516.838 105.123 L 492.838 103.123 Q 485.872 103.588 482.338 100.623 Q 484.379 76.664 500.838 67.123 Q 508.538 59.824 521.838 58.123 L 521.838 58.123 Z  M 258.838 60.123 Q 307.144 59.816 333.338 81.623 Q 323.375 102.66 324.338 134.623 L 326.838 136.123 C 355.982 109.504 410.012 106.447 436.338 138.623 L 436.338 138.623 L 436.838 140.123 L 438.338 140.623 C 455.476 165.29 450.347 195.504 448.793 223.48 C 446.86 258.281 447.429 293.344 454.338 327.623 L 454.338 327.623 L 450.838 333.123 C 427.772 338.822 403.863 339.117 380.282 337.567 C 370.089 336.897 359.255 337.475 350.338 331.623 L 350.338 331.623 L 349.338 324.623 C 352.52 310.907 352.577 296.583 351.338 282.623 L 351.338 282.623 L 351.338 189.623 C 349.298 179.45 344.188 170.335 332.838 171.123 L 332.838 171.123 L 325.338 174.623 C 323.276 177.42 323.716 181.435 324.338 184.623 L 324.338 184.623 L 324.338 208.623 L 324.338 304.623 C 326.66 306.017 325.913 309.513 325.338 311.623 L 325.338 311.623 L 326.338 329.623 L 324.838 332.123 C 301.373 339.392 276.075 339.491 251.838 337.123 L 251.838 337.123 L 246.838 336.123 Q 237.164 338.296 233.838 334.123 Q 225.775 334.685 223.338 329.623 L 222.338 324.623 C 230.204 304.475 229.866 281.763 227.338 260.623 L 227.338 260.623 L 227.338 123.623 Q 222.137 102.323 211.338 86.623 Q 213.463 76.248 221.838 72.123 Q 236.409 62.194 258.838 60.123 L 258.838 60.123 Z  M 843.838 60.123 Q 884.088 59.873 904.338 79.623 Q 908.937 84.023 906.338 95.623 Q 901.622 106.407 902.338 122.623 Q 905.838 128.623 918.838 125.123 L 959.338 125.623 Q 957.425 154.71 940.838 169.123 Q 936.568 175.853 923.838 174.123 Q 916.561 168.399 903.838 168.123 Q 900.588 169.873 902.338 176.623 L 902.338 198.623 L 902.338 285.623 Q 902.988 291.973 907.838 294.123 Q 911.123 296.837 917.838 296.123 Q 938.46 293.245 951.838 283.123 Q 958.588 288.373 956.338 302.623 Q 952.504 313.289 943.838 319.123 Q 914.163 341.448 860.838 340.123 Q 830.198 338.262 816.338 319.623 Q 800.647 297.314 804.338 255.623 L 804.338 196.623 Q 808.226 178.234 800.838 171.123 Q 793.671 166.789 778.838 170.123 Q 770.588 172.373 768.338 168.623 Q 767.19 138.475 780.838 123.123 L 785.838 122.123 C 791.164 125.557 797.59 126.843 803.838 127.123 L 803.838 127.123 L 804.338 115.623 C 800.432 104.804 799.746 93.018 800.338 81.623 L 800.338 81.623 L 804.838 75.123 C 815.824 66.032 829.859 61.724 843.838 60.123 L 843.838 60.123 L 843.838 60.123 Z  M 1251.838 60.123 C 1274.197 59.942 1298.514 64.477 1314.338 81.623 L 1314.338 81.623 L 1315.338 89.623 C 1312.113 99.967 1310.702 110.819 1310.338 121.623 L 1310.338 121.623 L 1311.838 124.123 C 1314.939 126.338 1319.341 125.822 1322.838 125.123 L 1322.838 125.123 L 1351.838 125.123 Q 1364.588 121.373 1368.338 126.623 Q 1364.986 155.271 1347.838 170.123 Q 1343.512 174.297 1335.838 175.123 Q 1325.535 169.925 1311.838 168.123 L 1311.338 288.623 L 1312.838 291.123 L 1314.338 291.623 L 1315.838 294.123 C 1318.192 296.068 1321.296 296.282 1324.213 296.248 C 1336.386 296.104 1350.244 290.382 1359.838 283.123 L 1359.838 283.123 L 1362.338 284.623 C 1368.528 292.808 1365.819 306.331 1358.838 313.123 L 1358.838 313.123 L 1357.338 313.623 L 1355.838 316.123 L 1354.338 316.623 L 1353.838 318.123 C 1335.214 332.389 1311.55 338.167 1288.494 339.717 C 1264.437 341.335 1237.696 338.925 1222.971 317.208 C 1210.198 298.369 1210.55 273.257 1213.338 251.623 L 1213.338 251.623 L 1213.338 197.623 Q 1216.453 179.007 1208.838 171.123 Q 1201.671 166.789 1186.838 170.123 Q 1178.588 172.373 1176.338 168.623 Q 1175.734 140.019 1187.838 124.123 L 1193.838 122.123 Q 1201.208 126.252 1211.838 127.123 Q 1214.588 125.873 1213.338 120.623 Q 1208.592 103.868 1208.338 82.623 Q 1210.213 74.998 1216.838 72.123 Q 1231.023 62.809 1251.838 60.123 L 1251.838 60.123 Z  M 100.838 76.123 Q 159.712 74.249 186.338 104.623 Q 192.458 112.502 193.338 125.623 Q 192.171 141.956 182.838 150.123 Q 172.387 161.673 149.838 161.123 Q 135.52 159.44 128.338 150.623 L 127.338 147.623 C 133.443 137.899 129.667 119.202 118.588 114.373 C 107.596 109.581 95.529 115.15 94.358 127.394 C 93.934 131.835 94.707 136.137 95.934 140.401 C 97.324 145.229 100.077 149.782 103.838 153.123 L 103.838 153.123 L 105.338 153.623 L 106.838 156.123 Q 154.652 180.308 189.338 217.623 Q 210.621 235.34 207.338 277.623 Q 201.844 302.129 184.838 315.123 Q 150.117 342.902 84.838 340.123 Q 32.65 338.31 6.338 310.623 Q -1.463 302.423 0.338 284.623 Q 2.622 270.907 11.838 264.123 Q 24.338 251.623 50.838 253.123 Q 66.655 255.305 75.338 264.623 L 76.338 267.623 C 70.264 278.305 70.374 291.859 79.838 300.123 C 84.184 303.918 89.158 304.102 94.838 303.123 L 94.838 303.123 L 104.338 295.623 Q 108.533 289.318 108.338 278.623 Q 106.069 262.391 94.838 255.123 Q 59.951 239.009 33.338 214.623 Q 2.737 193.223 2.338 141.623 Q 7.341 114.126 26.838 101.123 Q 54.262 79.047 100.838 76.123 L 100.838 76.123 Z  M 1066.838 76.123 Q 1123.687 74.273 1150.338 102.623 Q 1160.171 110.289 1158.338 129.623 Q 1156.254 145.039 1145.838 152.123 Q 1136.072 161.857 1115.838 161.123 Q 1100.945 159.016 1093.338 149.623 L 1095.338 132.623 C 1093.589 118.822 1084.569 111.073 1070.838 113.123 L 1070.838 113.123 L 1063.338 118.623 Q 1058.504 123.789 1060.338 135.623 Q 1063.702 150.758 1074.838 158.123 Q 1118.33 181.63 1152.338 214.623 Q 1175.464 232.496 1173.338 275.623 Q 1169.061 299.346 1153.838 312.123 L 1152.338 312.623 L 1151.838 314.123 Q 1117.1 342.885 1050.838 340.123 Q 1001.839 338.621 975.338 314.623 Q 965.662 307.298 965.338 290.623 Q 966.736 271.522 978.838 263.123 Q 990.672 251.457 1015.838 253.123 Q 1032.035 255.425 1041.338 264.623 Q 1037.504 274.789 1038.338 289.623 Q 1040.921 297.039 1046.838 301.123 Q 1050.838 304.623 1059.838 303.123 L 1068.338 297.623 Q 1075.338 291.123 1073.338 275.623 Q 1070.647 262.814 1061.838 256.123 Q 1018.999 236.961 989.338 204.623 Q 968.662 184.798 967.338 145.623 Q 969.79 123.575 981.838 111.123 L 983.338 110.623 L 988.838 104.123 C 1010.166 85.139 1038.946 77.82 1066.838 76.123 L 1066.838 76.123 L 1066.838 76.123 Z  M 2172.838 78.123 Q 2272.627 75.333 2319.338 125.623 Q 2348.696 154.265 2342.338 218.623 Q 2336.588 266.873 2309.838 294.123 L 2307.338 295.623 L 2306.838 297.123 L 2304.338 298.623 L 2303.838 300.123 L 2301.338 301.623 L 2300.838 303.123 C 2273.258 327.889 2234.795 334.961 2198.838 335.123 L 2198.838 335.123 L 2097.838 335.123 Q 2090.338 331.123 2094.338 315.623 Q 2102.938 241.723 2098.338 154.623 Q 2098.527 124.933 2088.338 105.623 L 2093.838 98.123 C 2117.489 83.891 2145.592 78.918 2172.838 78.123 L 2172.838 78.123 L 2172.838 78.123 Z  M 512.838 115.123 Q 558.185 113.275 585.338 129.623 Q 579.338 153.623 582.338 186.623 L 582.338 307.623 C 585.3 314.14 585.752 321.573 585.338 328.623 L 585.338 328.623 L 582.838 332.123 Q 550.993 341.778 504.838 337.123 Q 488.899 338.562 481.338 331.623 Q 485.838 307.123 484.338 276.623 L 484.338 187.623 C 483.747 169.877 480.864 151.836 473.338 135.623 L 473.338 135.623 L 480.838 126.123 C 489.644 118.495 501.456 115.69 512.838 115.123 L 512.838 115.123 L 512.838 115.123 Z  M 1476.838 115.123 Q 1547.757 113.703 1578.338 152.623 Q 1603.687 181.273 1599.338 239.623 Q 1591.858 285.143 1562.838 309.123 Q 1532.369 339.655 1471.838 340.123 Q 1418.473 335.487 1391.338 304.623 Q 1363.435 279.025 1363.338 225.623 Q 1366.876 179.161 1392.838 155.123 L 1395.338 153.623 L 1395.838 152.123 L 1397.338 151.623 L 1397.838 150.123 C 1418.785 128.896 1447.769 118.742 1476.838 115.123 L 1476.838 115.123 L 1476.838 115.123 Z  M 1773.838 115.123 Q 1816.914 115.546 1834.338 141.623 Q 1853.549 166.412 1847.338 216.623 Q 1843.808 277.152 1850.338 327.623 L 1846.838 333.123 C 1825.044 338.793 1802.356 339.065 1780.023 337.558 C 1769.491 336.847 1757.961 338.015 1749.338 330.623 L 1749.338 330.623 L 1748.338 321.623 C 1751.167 319.736 1750.095 315.275 1749.338 312.623 L 1749.338 312.623 L 1749.338 289.623 L 1749.338 196.623 C 1746.989 186.602 1741.048 177.238 1729.838 178.123 L 1729.838 178.123 L 1722.338 182.623 C 1719.062 230.552 1719.19 278.92 1725.338 326.623 L 1725.338 326.623 L 1719.838 333.123 C 1698.092 338.995 1675.366 339.188 1653.05 337.585 C 1642.363 336.818 1631.034 336.836 1622.338 329.623 L 1622.338 329.623 L 1621.338 321.623 C 1625.338 305.675 1625.617 288.932 1624.338 272.623 L 1624.338 272.623 L 1624.338 178.623 C 1622.832 168.754 1619.242 159.013 1612.338 151.623 L 1612.338 151.623 L 1620.838 140.123 Q 1638.161 122.447 1675.838 125.123 Q 1697.625 128.835 1708.338 143.623 L 1710.838 148.123 L 1714.338 146.623 L 1726.838 132.123 C 1739.749 120.766 1757.027 116.258 1773.838 115.123 L 1773.838 115.123 L 1773.838 115.123 Z  M 1972.838 115.123 Q 2032.575 113.385 2057.338 146.623 Q 2078.805 175.155 2076.338 227.623 L 2070.838 234.123 Q 2048.848 245.633 2012.838 243.123 Q 1987.658 242.803 1966.838 238.123 Q 1963.088 239.373 1964.338 245.623 Q 1965.275 284.185 1982.838 306.123 Q 1985.504 308.956 1991.838 308.123 L 1998.338 302.623 C 2001.581 296.24 2001.303 288.512 2000.338 281.623 L 2000.338 281.623 L 1998.338 271.623 C 2005.214 264.445 2017.566 263.345 2026.838 265.123 C 2039.431 267.537 2051.687 275.428 2059.338 285.623 L 2059.338 285.623 L 2067.338 301.623 L 2051.838 319.123 Q 2022.035 342.82 1965.838 340.123 Q 1912.611 335.85 1887.338 303.623 Q 1862.221 274.739 1866.338 216.623 Q 1872.275 172.06 1897.838 147.123 Q 1923.148 118.934 1972.838 115.123 L 1972.838 115.123 Z  M 2204.838 127.123 Q 2215.537 127.923 2219.338 135.623 Q 2241.691 169.269 2237.338 229.623 Q 2234.432 271.717 2211.838 294.123 L 2204.838 296.123 C 2201.102 293.788 2202.39 288.035 2203.338 284.623 L 2203.338 284.623 L 2203.338 253.623 L 2203.338 128.623 L 2204.838 127.123 L 2204.838 127.123 Z  M 1975.838 150.123 C 1985.564 148.808 1986.981 156.11 1989.451 163.947 C 1993.982 178.32 1994.948 193.646 1994.338 208.623 L 1994.338 208.623 L 1992.838 211.123 Q 1981.688 215.973 1964.838 215.123 Q 1960.525 209.935 1963.338 197.623 Q 1962.663 166.948 1975.838 150.123 L 1975.838 150.123 Z  M 1474.838 158.123 Q 1488.588 156.373 1490.338 166.623 Q 1506.569 199.391 1502.338 252.623 Q 1502.162 281.447 1488.838 297.123 Q 1477.445 298.516 1475.338 290.623 Q 1456.465 254.995 1461.338 195.623 Q 1461.894 172.179 1472.838 159.123 L 1474.838 158.123 L 1474.838 158.123 Z " fill-rule="evenodd" fill="rgb(255,255,255)"/></g></svg>