<?xml version="1.0" standalone="no"?><!-- Generator: Gravit.io --><svg xmlns="http://www.w3.org/2000/svg" xmlns:xlink="http://www.w3.org/1999/xlink" style="isolation:isolate" viewBox="779.206 1253.201 30 34.391" width="30" height="34.391"><g id="slating-flag"><g id="Group"><g id="Group"><path d=" M 808.875 1257.6 C 808.652 1257.378 808.39 1257.266 808.086 1257.266 C 807.934 1257.266 807.616 1257.39 807.133 1257.635 C 806.648 1257.881 806.132 1258.154 805.59 1258.459 C 805.047 1258.762 804.404 1259.036 803.662 1259.282 C 802.921 1259.527 802.235 1259.651 801.604 1259.651 C 801.02 1259.651 800.506 1259.54 800.062 1259.317 C 798.591 1258.628 797.311 1258.114 796.225 1257.775 C 795.139 1257.437 793.971 1257.266 792.72 1257.266 C 790.561 1257.266 788.101 1257.968 785.344 1259.37 C 784.775 1259.654 784.367 1259.874 784.103 1260.035 L 783.841 1258.114 C 784.433 1257.6 784.815 1256.851 784.815 1256.005 C 784.815 1254.456 783.56 1253.201 782.011 1253.201 C 780.462 1253.201 779.206 1254.456 779.206 1256.005 C 779.206 1257.016 779.746 1257.894 780.547 1258.388 L 784.335 1286.165 C 784.448 1286.992 785.156 1287.592 785.968 1287.592 C 786.042 1287.592 786.117 1287.586 786.193 1287.578 C 787.096 1287.454 787.728 1286.623 787.605 1285.72 L 786.082 1274.556 C 788.845 1273.186 791.234 1272.495 793.245 1272.495 C 794.098 1272.495 794.93 1272.621 795.741 1272.879 C 796.553 1273.137 797.229 1273.416 797.765 1273.719 C 798.301 1274.023 798.935 1274.304 799.666 1274.56 C 800.397 1274.817 801.118 1274.946 801.83 1274.946 C 803.629 1274.946 805.782 1274.268 808.295 1272.913 C 808.61 1272.749 808.841 1272.588 808.987 1272.431 C 809.134 1272.274 809.206 1272.049 809.206 1271.757 L 809.206 1258.388 C 809.206 1258.085 809.096 1257.822 808.875 1257.6 Z " fill="rgb(255,255,255)"/></g></g></g></svg>