<?xml version="1.0" standalone="no"?>
<!DOCTYPE svg PUBLIC "-//W3C//DTD SVG 20010904//EN"
 "http://www.w3.org/TR/2001/REC-SVG-20010904/DTD/svg10.dtd">
<svg version="1.0" xmlns="http://www.w3.org/2000/svg"
 width="512.000000pt" height="512.000000pt" viewBox="0 0 512.000000 512.000000"
 preserveAspectRatio="xMidYMid meet">
<metadata>
Created by potrace 1.11, written by Peter Selinger 2001-2013
</metadata>
<g transform="translate(0.000000,512.000000) scale(0.100000,-0.100000)"
fill="#000000" stroke="none">
<path d="M2325 5029 c-809 -78 -1519 -541 -1933 -1259 -230 -400 -346 -902
-314 -1362 10 -141 33 -309 48 -358 5 -13 6 -13 14 0 13 20 12 3 0 -21 -9 -15
-7 -21 5 -26 11 -4 13 -8 6 -13 -19 -11 6 -110 27 -110 14 0 14 -2 3 -9 -12
-8 -7 -31 29 -133 200 -580 605 -1062 1147 -1366 504 -283 1118 -377 1698
-261 839 168 1547 777 1840 1584 196 542 204 1096 24 1639 -227 683 -744 1239
-1411 1518 -112 47 -326 112 -458 138 -208 42 -517 59 -725 39z m630 -899
c245 -29 449 -123 602 -276 80 -80 96 -117 97 -218 l1 -59 13 44 c8 24 17 85
20 134 l7 90 24 -50 c36 -71 41 -190 13 -282 -58 -187 -212 -320 -397 -343
-91 -11 -189 -1 -212 22 -14 14 -11 17 28 24 24 5 49 9 54 9 82 9 137 19 150
28 12 9 -4 11 -74 9 -89 -4 -90 -4 -170 39 l-79 42 1 121 c1 105 -2 129 -22
178 -29 73 -106 159 -173 192 -45 22 -65 26 -142 26 -64 -1 -97 -5 -110 -15
-19 -14 -18 -15 10 -21 16 -3 40 -14 53 -23 l23 -18 -35 -22 c-78 -48 -136
-135 -137 -206 -1 -15 -7 -10 -25 20 -18 28 -25 55 -25 90 l-1 50 -16 -30
c-21 -38 -29 -166 -14 -233 8 -37 35 -88 96 -180 80 -119 89 -130 143 -156
171 -83 476 -283 657 -431 160 -130 387 -353 430 -420 17 -27 42 -77 54 -110
13 -33 27 -70 32 -82 5 -13 14 -72 21 -131 9 -87 9 -126 -1 -195 -7 -48 -13
-90 -13 -94 0 -5 -4 -18 -9 -30 -5 -13 -7 -23 -4 -23 7 0 45 92 45 111 0 10 8
40 19 66 16 42 18 68 14 208 -2 87 -8 164 -12 170 -5 5 -11 20 -14 33 -4 19
-3 21 9 11 8 -6 14 -19 14 -28 1 -9 7 -27 14 -40 l14 -24 6 21 c7 21 21 26 57
23 9 -1 19 5 22 13 9 24 37 8 35 -20 -2 -16 -7 -23 -16 -19 -8 3 -27 -6 -44
-20 -16 -14 -36 -25 -44 -25 -12 0 -13 -8 -8 -37 4 -21 10 -47 14 -58 4 -11 6
-76 5 -145 -3 -303 -126 -526 -391 -708 -46 -32 -200 -107 -279 -137 -337
-126 -900 -156 -1289 -68 -94 21 -66 38 36 22 40 -7 99 -13 130 -15 31 -1 62
-5 68 -9 6 -4 25 -6 43 -4 17 1 44 -2 60 -6 15 -4 33 -3 40 3 6 5 82 13 167
16 85 4 182 11 215 16 191 28 224 34 267 51 26 11 53 19 62 19 20 0 70 19 64
25 -2 2 -39 -5 -83 -16 -155 -38 -307 -53 -560 -54 -278 0 -418 17 -580 70
-183 60 -261 104 -376 212 -75 71 -90 98 -109 187 -9 47 -9 69 5 128 18 82 34
114 77 163 70 81 172 128 312 146 109 14 200 -1 288 -48 79 -41 78 -38 47
-172 l-21 -91 22 -71 c26 -88 56 -134 120 -186 47 -38 54 -41 137 -47 48 -4
99 -10 113 -13 21 -4 42 9 117 76 114 101 136 147 137 286 2 220 -124 403
-334 485 -51 20 -285 155 -360 208 -179 126 -390 311 -472 413 -109 135 -178
370 -178 603 0 121 13 183 60 276 54 107 108 170 218 253 273 205 608 303 992
292 80 -3 186 -10 235 -15z m918 -120 c9 -11 24 -20 32 -20 8 0 15 -6 15 -14
0 -7 10 -21 23 -29 16 -11 18 -16 7 -16 -9 -1 -26 6 -38 15 -12 8 -47 18 -77
21 -61 6 -69 20 -27 45 36 22 45 22 65 -2z m-1213 -490 c0 -5 -4 -10 -10 -10
-5 0 -10 5 -10 10 0 6 5 10 10 10 6 0 10 -4 10 -10z m1300 -1300 c0 -5 -2 -10
-4 -10 -3 0 -8 5 -11 10 -3 6 -1 10 4 10 6 0 11 -4 11 -10z m-30 -20 c0 -5 -5
-10 -11 -10 -5 0 -7 5 -4 10 3 6 8 10 11 10 2 0 4 -4 4 -10z m-3651 -72 c5
-13 5 -27 0 -32 -17 -19 -9 -25 31 -24 38 0 59 -6 49 -16 -2 -3 -24 -6 -49 -9
-24 -2 -46 -9 -48 -16 -3 -8 -9 -5 -19 9 -8 11 -20 19 -26 17 -6 -2 -18 4 -27
12 -9 9 -26 22 -37 30 -42 28 -13 45 85 49 25 2 35 -3 41 -20z m19 -179 c17
-26 10 -34 -16 -20 -12 6 -30 11 -41 11 -23 0 -28 15 -8 23 27 12 53 6 65 -14z
m3892 -43 c0 -3 -4 -8 -10 -11 -5 -3 -10 -1 -10 4 0 6 5 11 10 11 6 0 10 -2
10 -4z m-70 -15 c0 -6 -6 -13 -12 -18 -20 -12 -48 -14 -48 -3 0 11 29 29 48
30 6 0 12 -4 12 -9z m-70 -11 c0 -5 -4 -10 -9 -10 -6 0 -13 5 -16 10 -3 6 1
10 9 10 9 0 16 -4 16 -10z m195 -22 c4 -4 -11 -10 -34 -14 -22 -4 -41 -11 -41
-16 0 -5 -10 -6 -22 -2 -32 9 -35 14 -17 27 18 13 103 16 114 5z m-1961 -14
c9 -4 16 -18 16 -33 -1 -33 -35 -189 -43 -198 -4 -3 -16 2 -27 12 -17 16 -20
28 -17 79 2 37 13 78 26 104 23 46 22 45 45 36z m152 -2 c-3 -3 -1 -11 5 -18
26 -32 -26 -47 -54 -16 -20 22 -7 40 29 40 14 0 22 -3 20 -6z m2224 -42 c-20
-13 -43 -13 -35 0 3 6 16 10 28 10 18 0 19 -2 7 -10z m-455 -114 l30 -13 -40
-11 c-55 -16 -85 -15 -85 3 0 8 7 15 15 15 8 0 15 5 15 10 0 14 29 12 65 -4z
m535 4 c-20 -13 -43 -13 -35 0 3 6 16 10 28 10 18 0 19 -2 7 -10z m-675 -30
c3 -5 1 -10 -4 -10 -6 0 -11 5 -11 10 0 6 2 10 4 10 3 0 8 -4 11 -10z m670
-10 c3 -5 2 -10 -4 -10 -5 0 -13 5 -16 10 -3 6 -2 10 4 10 5 0 13 -4 16 -10z
m-4135 -214 c0 -11 -19 -15 -25 -6 -3 5 1 10 9 10 9 0 16 -2 16 -4z m126 -9
c4 -4 -16 -7 -44 -7 -28 0 -53 4 -57 9 -6 11 90 9 101 -2z m191 -70 c4 -7 0
-8 -11 -4 -10 4 -22 7 -27 7 -5 0 -9 4 -9 9 0 12 38 2 47 -12z m-50 -13 c-3
-3 -12 -4 -19 -1 -8 3 -5 6 6 6 11 1 17 -2 13 -5z m156 -21 c-7 -2 -19 -2 -25
0 -7 3 -2 5 12 5 14 0 19 -2 13 -5z m814 -339 c-3 -3 -12 -4 -19 -1 -8 3 -5 6
6 6 11 1 17 -2 13 -5z m78 -25 c15 -15 -18 -10 -45 6 l-25 15 30 -6 c17 -4 34
-11 40 -15z"/>
<path d="M3320 1110 c-13 -8 -13 -10 2 -10 9 0 20 5 23 10 8 13 -5 13 -25 0z"/>
<path d="M3215 1071 c-22 -11 -34 -20 -27 -20 16 -1 82 26 82 33 0 10 -13 6
-55 -13z"/>
</g>
</svg>
