<?xml version="1.0" standalone="no"?><!-- Generator: Gravit.io --><svg xmlns="http://www.w3.org/2000/svg" xmlns:xlink="http://www.w3.org/1999/xlink" style="isolation:isolate" viewBox="483.85 1178.373 32.5 36" width="32.5" height="36"><path d=" M 493.1 1178.873 C 495.375 1182.723 491.35 1185.348 491.35 1192.873 C 491.35 1199.698 496.775 1205.123 503.6 1205.123 C 514.625 1205.123 511.475 1194.623 515.85 1194.623 C 515.85 1192.523 514.625 1191.123 512.35 1191.123 C 510.075 1191.123 508.85 1193.048 508.85 1196.373 C 508.85 1199.348 506.575 1201.623 503.6 1201.623 C 500.625 1201.623 498.35 1199.348 498.35 1196.373 C 498.35 1184.298 504.65 1183.423 493.1 1178.873 Z  M 488.78 1181.771 C 486.319 1181.968 484.35 1184.123 484.35 1184.123 C 486.625 1186.398 486.1 1188.312 486.1 1190.412 C 486.1 1203.887 498.35 1205.123 498.35 1205.123 C 498.35 1205.123 489.6 1203.209 489.6 1192.709 C 489.6 1186.759 491.35 1184.823 491.35 1182.373 C 490.475 1181.848 489.6 1181.706 488.78 1181.771 Z  M 503.6 1192.873 C 501.667 1192.873 500.1 1194.44 500.1 1196.373 C 500.1 1198.306 501.667 1199.873 503.6 1199.873 C 505.533 1199.873 507.1 1198.306 507.1 1196.373 C 507.1 1194.44 505.533 1192.873 503.6 1192.873 Z  M 491.35 1206.873 L 491.35 1210.373 L 494.85 1210.373 L 494.85 1213.873 L 508.85 1213.873 L 508.85 1210.373 L 512.35 1210.373 L 512.35 1206.873 L 491.35 1206.873 Z " fill="rgb(255,255,255)" vector-effect="non-scaling-stroke" stroke-width="1" stroke="rgb(255,255,255)" stroke-linejoin="miter" stroke-linecap="butt" stroke-miterlimit="4"/></svg>