<?xml version="1.0" standalone="no"?><!-- Generator: Gravit.io --><svg xmlns="http://www.w3.org/2000/svg" xmlns:xlink="http://www.w3.org/1999/xlink" style="isolation:isolate" viewBox="779.35 1110.678 36.403 36.417" width="36.403" height="36.417"><g id="scale"><g id="Group"><g id="Group"><path d=" M 806.088 1142.827 L 789.018 1142.827 C 787.253 1142.827 785.817 1144.263 785.817 1146.028 C 785.817 1146.618 786.294 1147.095 786.884 1147.095 L 808.222 1147.095 C 808.812 1147.095 809.289 1146.618 809.289 1146.028 C 809.289 1144.263 807.853 1142.827 806.088 1142.827 Z " fill="rgb(255,255,255)"/></g></g><g id="Group"><g id="Group"><path d=" M 815.706 1128.549 L 811.439 1115.746 C 811.436 1115.739 811.428 1115.737 811.425 1115.73 C 811.42 1115.716 811.423 1115.701 811.418 1115.687 C 811.199 1115.139 810.575 1114.873 810.031 1115.093 C 807.024 1116.296 803.67 1116.322 800.631 1115.254 C 800.357 1114.239 799.601 1113.429 798.62 1113.079 L 798.62 1111.745 C 798.62 1111.155 798.143 1110.678 797.553 1110.678 C 796.963 1110.678 796.486 1111.155 796.486 1111.745 L 796.486 1113.079 C 795.504 1113.429 794.749 1114.239 794.475 1115.254 C 791.436 1116.322 788.082 1116.296 785.075 1115.092 C 784.532 1114.872 783.907 1115.138 783.688 1115.687 C 783.683 1115.701 783.685 1115.716 783.68 1115.73 C 783.678 1115.737 783.67 1115.739 783.667 1115.746 L 779.4 1128.549 C 779.385 1128.594 779.34 1128.851 779.352 1128.986 C 779.408 1131.963 781.824 1134.221 784.679 1134.221 C 787.582 1134.221 789.941 1131.887 790.002 1128.998 C 790.016 1128.868 789.98 1128.614 789.958 1128.549 L 786.349 1117.72 C 787.555 1118.017 788.783 1118.183 790.013 1118.183 C 791.562 1118.183 793.179 1117.937 794.68 1117.467 C 794.903 1117.928 795.231 1118.325 795.636 1118.631 L 793.677 1136.426 L 801.429 1136.426 L 799.47 1118.631 C 799.875 1118.325 800.203 1117.928 800.426 1117.467 C 801.927 1117.937 803.544 1118.183 805.092 1118.183 C 806.323 1118.183 807.55 1118.017 808.757 1117.72 L 805.148 1128.549 C 805.132 1128.594 805.087 1128.851 805.1 1128.986 C 805.155 1131.963 807.572 1134.221 810.427 1134.221 C 813.33 1134.221 815.689 1131.887 815.75 1128.998 C 815.764 1128.868 815.728 1128.614 815.706 1128.549 Z  M 787.467 1127.819 L 781.891 1127.819 L 784.679 1119.457 L 787.467 1127.819 Z  M 797.553 1117.15 C 796.964 1117.15 796.486 1116.672 796.486 1116.083 C 796.486 1115.495 796.964 1115.016 797.553 1115.016 C 798.142 1115.016 798.62 1115.495 798.62 1116.083 C 798.62 1116.672 798.142 1117.15 797.553 1117.15 Z  M 807.639 1127.819 L 810.427 1119.457 L 813.215 1127.819 L 807.639 1127.819 Z " fill="rgb(255,255,255)"/></g></g><g id="Group"><g id="Group"><path d=" M 801.821 1138.559 L 793.285 1138.559 C 791.896 1138.559 790.723 1139.454 790.281 1140.693 L 804.825 1140.693 C 804.383 1139.454 803.21 1138.559 801.821 1138.559 Z " fill="rgb(255,255,255)"/></g></g></g></svg>